<?xml version="1.0" encoding="UTF-8" standalone="no"?>
<svg
   xmlns:dc="http://purl.org/dc/elements/1.1/"
   xmlns:cc="http://creativecommons.org/ns#"
   xmlns:rdf="http://www.w3.org/1999/02/22-rdf-syntax-ns#"
   xmlns:svg="http://www.w3.org/2000/svg"
   xmlns="http://www.w3.org/2000/svg"
   xmlns:sodipodi="http://sodipodi.sourceforge.net/DTD/sodipodi-0.dtd"
   xmlns:inkscape="http://www.inkscape.org/namespaces/inkscape"
   width="3750pt"
   height="3749.999967pt"
   viewBox="0 0 3750 3749.999967"
   version="1.2"
   id="svg847"
   sodipodi:docname="4.svg"
   inkscape:version="1.0.2 (e86c8708, 2021-01-15)">
  <metadata
     id="metadata851">
    <rdf:RDF>
      <cc:Work
         rdf:about="">
        <dc:format>image/svg+xml</dc:format>
        <dc:type
           rdf:resource="http://purl.org/dc/dcmitype/StillImage" />
      </cc:Work>
    </rdf:RDF>
  </metadata>
  <sodipodi:namedview
     pagecolor="#ffffff"
     bordercolor="#666666"
     borderopacity="1"
     objecttolerance="10"
     gridtolerance="10"
     guidetolerance="10"
     inkscape:pageopacity="0"
     inkscape:pageshadow="2"
     inkscape:window-width="1440"
     inkscape:window-height="872"
     id="namedview849"
     showgrid="false"
     inkscape:zoom="0.0692"
     inkscape:cx="962.13684"
     inkscape:cy="2566.2774"
     inkscape:window-x="0"
     inkscape:window-y="2449"
     inkscape:window-maximized="0"
     inkscape:current-layer="svg847" />
  <defs
     id="defs836">
    <clipPath
       id="clip1">
      <path
         d="M 1125 1125 L 2625 1125 L 2625 2625 L 1125 2625 Z M 1125 1125 "
         id="path833" />
    </clipPath>
  </defs>
  <g
     id="surface1"
     transform="matrix(2.475,0,0,2.475,-2764.8663,-2754.0282)">
    <g
       clip-path="url(#clip1)"
       clip-rule="nonzero"
       id="g840">
      <path
         style="fill:#ab0291;fill-opacity:1;fill-rule:evenodd;stroke:none"
         d="m 1875.0352,2625.0586 c 413.1015,0 750.0234,-336.9336 750.0234,-750.0352 C 2625.0586,1461.9219 2288.1367,1125 1875.0352,1125 1461.9219,1125 1125,1461.9219 1125,1875.0234 c 0,413.1016 336.9219,750.0352 750.0352,750.0352"
         id="path838" />
    </g>
    <path
       style="fill:#fa00d1;fill-opacity:1;fill-rule:evenodd;stroke:none"
       d="m 2111.3047,1435.5547 c 54.0039,0 105.3867,21.4922 143.5469,59.6641 38.1601,38.1601 59.6562,89.5312 59.6562,143.5351 v 472.5508 c 0,54.0039 -21.4961,105.375 -59.6562,143.5351 -38.1602,38.1719 -89.543,59.668 -143.5469,59.668 h -472.5391 c -54.0156,0 -105.3867,-21.4961 -143.5468,-59.6562 -38.1602,-38.1719 -59.6524,-89.543 -59.6524,-143.5469 v -472.5508 c 0,-54.0039 21.4922,-105.375 59.6524,-143.5351 38.1601,-38.1719 89.5312,-59.6641 143.5468,-59.6641 h 472.5391"
       id="path842" />
    <path
       style="fill:#facf0f;fill-opacity:1;fill-rule:evenodd;stroke:none"
       d="m 2103.9258,1791.957 c -19.3828,19.3711 -46.1328,31.3516 -75.6992,31.3516 -29.5547,0 -56.3164,-11.9805 -75.6914,-31.3516 -19.3711,-19.375 -31.3516,-46.1367 -31.3516,-75.6914 0,-29.5625 11.9805,-56.3281 31.3516,-75.6992 19.375,-19.375 46.1367,-31.3555 75.6914,-31.3555 29.5664,0 56.3164,11.9805 75.6992,31.3555 19.3633,19.3711 31.3555,46.1367 31.3555,75.6992 0,29.5547 -11.9922,56.3164 -31.3555,75.6914 z m -275.0391,-75.6914 c 0,29.5547 -11.9922,56.3164 -31.3633,75.6914 -19.3711,19.3711 -46.1367,31.3516 -75.6914,31.3516 -29.5507,0 -56.3281,-11.9805 -75.6875,-31.3516 -19.3828,-19.375 -31.3632,-46.1367 -31.3632,-75.6914 0,-29.5625 11.9804,-56.3281 31.3632,-75.6992 19.3711,-19.375 46.1368,-31.3555 75.6875,-31.3555 29.5547,0 56.3203,11.9805 75.6914,31.3555 19.3711,19.3711 31.3633,46.1367 31.3633,75.6992 z m 282.418,-252.5078 h -472.5391 c -48.1523,0 -91.9023,19.6836 -123.6133,51.3945 -31.7109,31.711 -51.3945,75.461 -51.3945,123.6016 v 472.5508 c 0,48.1289 19.6836,91.8906 51.3945,123.6016 31.711,31.7109 75.461,51.3945 123.6133,51.3945 h 472.5391 c 48.1289,0 91.8906,-19.6836 123.6016,-51.3945 31.7109,-31.711 51.3945,-75.4727 51.3945,-123.6016 v -472.5508 c 0,-48.1406 -19.6836,-91.8906 -51.3945,-123.6016 -31.711,-31.7109 -75.4727,-51.3945 -123.6016,-51.3945 z m -83.0781,677.0899 c -29.5547,0 -56.3164,-11.9805 -75.6914,-31.3516 -19.3711,-19.375 -31.3516,-46.1367 -31.3516,-75.7031 0,-29.5547 11.9805,-56.3164 31.3516,-75.6875 19.375,-19.375 46.1367,-31.3555 75.6914,-31.3555 29.5664,0 56.3164,11.9805 75.6992,31.3555 19.3633,19.3711 31.3555,46.1328 31.3555,75.6875 0,29.5664 -11.9922,56.3281 -31.3555,75.7031 -19.3828,19.3711 -46.1328,31.3516 -75.6992,31.3516 z m -230.7032,-182.7422 c 19.3711,19.3711 31.3633,46.1328 31.3633,75.6875 0,29.5664 -11.9922,56.3281 -31.3633,75.7031 -19.3711,19.3711 -46.1367,31.3516 -75.6914,31.3516 -29.5507,0 -56.3164,-11.9805 -75.6875,-31.3516 -19.3828,-19.375 -31.3632,-46.1367 -31.3632,-75.7031 0,-29.5547 11.9804,-56.3164 31.3632,-75.6875 19.3594,-19.375 46.1368,-31.3555 75.6875,-31.3555 29.5547,0 56.3203,11.9805 75.6914,31.3555"
       id="path844" />
  </g>
</svg>
