<?xml version="1.0" encoding="UTF-8" standalone="no"?>
<svg
   xmlns:dc="http://purl.org/dc/elements/1.1/"
   xmlns:cc="http://creativecommons.org/ns#"
   xmlns:rdf="http://www.w3.org/1999/02/22-rdf-syntax-ns#"
   xmlns:svg="http://www.w3.org/2000/svg"
   xmlns="http://www.w3.org/2000/svg"
   xmlns:sodipodi="http://sodipodi.sourceforge.net/DTD/sodipodi-0.dtd"
   xmlns:inkscape="http://www.inkscape.org/namespaces/inkscape"
   width="3750pt"
   height="3749.999967pt"
   viewBox="0 0 3750 3749.999967"
   version="1.2"
   id="svg847"
   sodipodi:docname="5.svg"
   inkscape:version="1.0.2 (e86c8708, 2021-01-15)">
  <metadata
     id="metadata851">
    <rdf:RDF>
      <cc:Work
         rdf:about="">
        <dc:format>image/svg+xml</dc:format>
        <dc:type
           rdf:resource="http://purl.org/dc/dcmitype/StillImage" />
      </cc:Work>
    </rdf:RDF>
  </metadata>
  <sodipodi:namedview
     pagecolor="#ffffff"
     bordercolor="#666666"
     borderopacity="1"
     objecttolerance="10"
     gridtolerance="10"
     guidetolerance="10"
     inkscape:pageopacity="0"
     inkscape:pageshadow="2"
     inkscape:window-width="1440"
     inkscape:window-height="872"
     id="namedview849"
     showgrid="false"
     inkscape:zoom="0.097863579"
     inkscape:cx="2092.9693"
     inkscape:cy="2592.779"
     inkscape:window-x="0"
     inkscape:window-y="2449"
     inkscape:window-maximized="0"
     inkscape:current-layer="svg847" />
  <defs
     id="defs836">
    <clipPath
       id="clip1">
      <path
         d="M 1125 1125 L 2625 1125 L 2625 2625 L 1125 2625 Z M 1125 1125 "
         id="path833" />
    </clipPath>
  </defs>
  <g
     id="surface1"
     transform="matrix(2.475,0,0,2.475,-2762.9521,-2761.4521)">
    <g
       clip-path="url(#clip1)"
       clip-rule="nonzero"
       id="g840">
      <path
         style="fill:#ab1e45;fill-opacity:1;fill-rule:evenodd;stroke:none"
         d="m 1875.0352,2625.0625 c 413.1015,0 750.0234,-336.9375 750.0234,-750.0391 C 2625.0586,1461.9258 2288.1367,1125 1875.0352,1125 1461.9219,1125 1125,1461.9258 1125,1875.0234 c 0,413.1016 336.9219,750.0391 750.0352,750.0391"
         id="path838" />
    </g>
    <path
       style="fill:#fa0c51;fill-opacity:1;fill-rule:evenodd;stroke:none"
       d="m 2108.8047,1435.5547 c 54.668,0 106.6836,21.7695 145.3086,60.3945 38.6367,38.625 60.3945,90.6367 60.3945,145.3086 v 467.5469 c 0,54.6719 -21.7578,106.6719 -60.3945,145.3086 -38.625,38.625 -90.6406,60.3945 -145.3086,60.3945 h -467.5469 c -54.6719,0 -106.6875,-21.7578 -145.3125,-60.3945 -38.625,-38.625 -60.3789,-90.6367 -60.3789,-145.3086 v -467.5469 c 0,-54.6719 21.7539,-106.6836 60.3789,-145.3086 38.625,-38.625 90.6406,-60.3945 145.3125,-60.3945 h 467.5469"
       id="path842" />
    <path
       style="fill:#fae600;fill-opacity:1;fill-rule:evenodd;stroke:none"
       d="m 1684.7344,1591.6172 c 29.2422,0 55.7187,11.8516 74.8906,31.0195 19.168,19.168 31.0195,45.6485 31.0195,74.9024 0,29.2422 -11.8515,55.7187 -31.0195,74.8906 -19.1719,19.168 -45.6484,31.0195 -74.8906,31.0195 -29.2539,0 -55.7344,-11.8515 -74.9024,-31.0195 -19.1562,-19.1719 -31.0195,-45.6484 -31.0195,-74.8906 0,-29.2539 11.8633,-55.7344 31.0195,-74.9024 19.168,-19.1679 45.6485,-31.0195 74.9024,-31.0195 z m 87.6953,398.8203 c 19.168,19.168 31.0195,45.6445 31.0195,74.8906 0,29.2422 -11.8515,55.7305 -31.0195,74.8867 -19.1719,19.1719 -45.6484,31.0352 -74.8906,31.0352 -29.2578,0 -55.7344,-11.8633 -74.9024,-31.0352 -19.1601,-19.1679 -31.0195,-45.6445 -31.0195,-74.8867 0,-29.2461 11.8594,-55.7226 31.0195,-74.8906 19.168,-19.1719 45.6446,-31.0195 74.9024,-31.0195 29.2422,0 55.7187,11.8476 74.8906,31.0195 z m 292.8945,-43.8242 c 29.2578,0 55.7344,11.8633 74.8906,31.0195 19.1836,19.168 31.0313,45.6485 31.0313,74.8906 0,29.2539 -11.8477,55.7305 -31.0313,74.9024 -19.1562,19.1562 -45.6328,31.0195 -74.8906,31.0195 -29.2422,0 -55.7187,-11.8633 -74.8906,-31.0195 -19.1563,-19.1719 -31.0195,-45.6485 -31.0195,-74.9024 0,-29.2421 11.8632,-55.7226 31.0195,-74.8906 19.1719,-19.1562 45.6484,-31.0195 74.8906,-31.0195 z m -190.289,-177.5 c -29.2539,0 -55.7305,11.8515 -74.9024,31.0195 -19.168,19.1719 -31.0195,45.6485 -31.0195,74.9024 0,29.2461 11.8515,55.7226 31.0195,74.8906 19.1719,19.1601 45.6485,31.0195 74.9024,31.0195 29.2421,0 55.7226,-11.8594 74.8906,-31.0195 19.168,-19.168 31.0195,-45.6445 31.0195,-74.8906 0,-29.2539 -11.8515,-55.7305 -31.0195,-74.9024 -19.168,-19.168 -45.6485,-31.0195 -74.8906,-31.0195 z m 233.7695,-301.0039 h -467.5469 c -47.6289,0 -90.914,19.4804 -122.289,50.8594 -31.379,31.375 -50.8594,74.664 -50.8594,122.289 v 467.5469 c 0,47.625 19.4804,90.9101 50.8594,122.2891 31.375,31.3789 74.6601,50.8554 122.289,50.8554 h 467.5469 c 47.625,0 90.9101,-19.4765 122.2891,-50.8554 31.375,-31.379 50.8554,-74.6641 50.8554,-122.2891 v -467.5469 c 0,-47.625 -19.4804,-90.914 -50.8554,-122.289 -31.379,-31.379 -74.6641,-50.8594 -122.2891,-50.8594 z m -131.1719,141.7226 c 19.168,-19.1562 45.6445,-31.0195 74.9024,-31.0195 29.2421,0 55.7187,11.8633 74.8906,31.0195 19.1562,19.1719 31.0195,45.6485 31.0195,74.9024 0,29.2422 -11.8633,55.7226 -31.0195,74.8906 -19.1719,19.1719 -45.6485,31.0195 -74.8906,31.0195 -29.2579,0 -55.7344,-11.8476 -74.9024,-31.0195 -19.1601,-19.168 -31.0195,-45.6484 -31.0195,-74.8906 0,-29.2539 11.8594,-55.7305 31.0195,-74.9024"
       id="path844" />
  </g>
</svg>
