<?xml version="1.0" encoding="UTF-8" standalone="no"?>
<svg
   xmlns:dc="http://purl.org/dc/elements/1.1/"
   xmlns:cc="http://creativecommons.org/ns#"
   xmlns:rdf="http://www.w3.org/1999/02/22-rdf-syntax-ns#"
   xmlns:svg="http://www.w3.org/2000/svg"
   xmlns="http://www.w3.org/2000/svg"
   xmlns:sodipodi="http://sodipodi.sourceforge.net/DTD/sodipodi-0.dtd"
   xmlns:inkscape="http://www.inkscape.org/namespaces/inkscape"
   width="3750pt"
   height="3749.999967pt"
   viewBox="0 0 3750 3749.999967"
   version="1.2"
   id="svg847"
   sodipodi:docname="1.svg"
   inkscape:version="1.0.2 (e86c8708, 2021-01-15)">
  <metadata
     id="metadata851">
    <rdf:RDF>
      <cc:Work
         rdf:about="">
        <dc:format>image/svg+xml</dc:format>
        <dc:type
           rdf:resource="http://purl.org/dc/dcmitype/StillImage" />
      </cc:Work>
    </rdf:RDF>
  </metadata>
  <sodipodi:namedview
     pagecolor="#ffffff"
     bordercolor="#666666"
     borderopacity="1"
     objecttolerance="10"
     gridtolerance="10"
     guidetolerance="10"
     inkscape:pageopacity="0"
     inkscape:pageshadow="2"
     inkscape:window-width="1440"
     inkscape:window-height="872"
     id="namedview849"
     showgrid="false"
     inkscape:zoom="0.0692"
     inkscape:cx="818.52842"
     inkscape:cy="2957.8347"
     inkscape:window-x="0"
     inkscape:window-y="2449"
     inkscape:window-maximized="0"
     inkscape:current-layer="svg847" />
  <defs
     id="defs836">
    <clipPath
       id="clip1">
      <path
         d="M 1125 1125 L 2625 1125 L 2625 2625 L 1125 2625 Z M 1125 1125 "
         id="path833" />
    </clipPath>
  </defs>
  <g
     id="surface1"
     transform="matrix(2.475,0,0,2.475,-2757.3663,-2757.7045)">
    <g
       clip-path="url(#clip1)"
       clip-rule="nonzero"
       id="g840">
      <path
         style="fill:#2eaba3;fill-opacity:1;fill-rule:evenodd;stroke:none"
         d="m 1875.0352,2625.0586 c 413.1015,0 750.0234,-336.9336 750.0234,-750.0352 C 2625.0586,1461.9219 2288.1367,1125 1875.0352,1125 1461.9219,1125 1125,1461.9219 1125,1875.0234 c 0,413.1016 336.9219,750.0352 750.0352,750.0352"
         id="path838" />
    </g>
    <path
       style="fill:#3ffaee;fill-opacity:1;fill-rule:evenodd;stroke:none"
       d="m 2111.3047,1435.5547 c 54.0039,0 105.3867,21.4922 143.5469,59.6641 38.1601,38.1601 59.6562,89.5312 59.6562,143.5351 v 472.5508 c 0,54.0039 -21.4961,105.375 -59.6562,143.5351 -38.1602,38.1719 -89.543,59.668 -143.5469,59.668 h -472.5391 c -54.0156,0 -105.3867,-21.4961 -143.5468,-59.6562 -38.1602,-38.1719 -59.6524,-89.543 -59.6524,-143.5469 v -472.5508 c 0,-54.0039 21.4922,-105.375 59.6524,-143.5351 38.1601,-38.1719 89.5312,-59.6641 143.5468,-59.6641 h 472.5391"
       id="path842" />
    <path
       style="fill:#ab359c;fill-opacity:1;fill-rule:evenodd;stroke:none"
       d="m 2111.3047,1463.7578 h -472.5391 c -48.1523,0 -91.9023,19.6836 -123.6133,51.3945 -31.7109,31.711 -51.3945,75.461 -51.3945,123.6016 v 472.5508 c 0,48.1289 19.6836,91.8906 51.3945,123.6016 31.711,31.7109 75.461,51.3945 123.6133,51.3945 h 472.5391 c 48.1289,0 91.8906,-19.6836 123.6016,-51.3945 31.7109,-31.711 51.3945,-75.4727 51.3945,-123.6016 v -472.5508 c 0,-48.1406 -19.6836,-91.8906 -51.3945,-123.6016 -31.711,-31.7109 -75.4727,-51.3945 -123.6016,-51.3945 z m -236.2695,304.2227 c 29.5546,0 56.3164,11.9804 75.6914,31.3554 19.3711,19.3711 31.3515,46.1368 31.3515,75.6875 0,29.5664 -11.9804,56.3282 -31.3515,75.7032 -19.375,19.3711 -46.1368,31.3515 -75.6914,31.3515 -29.5664,0 -56.3282,-11.9804 -75.6993,-31.3515 -19.375,-19.375 -31.3554,-46.1368 -31.3554,-75.7032 0,-29.5507 11.9804,-56.3164 31.3554,-75.6875 19.3711,-19.375 46.1329,-31.3554 75.6993,-31.3554"
       id="path844" />
  </g>
</svg>
