<?xml version="1.0" encoding="UTF-8" standalone="no"?>
<svg
   xmlns:dc="http://purl.org/dc/elements/1.1/"
   xmlns:cc="http://creativecommons.org/ns#"
   xmlns:rdf="http://www.w3.org/1999/02/22-rdf-syntax-ns#"
   xmlns:svg="http://www.w3.org/2000/svg"
   xmlns="http://www.w3.org/2000/svg"
   xmlns:sodipodi="http://sodipodi.sourceforge.net/DTD/sodipodi-0.dtd"
   xmlns:inkscape="http://www.inkscape.org/namespaces/inkscape"
   width="3750pt"
   height="3749.999967pt"
   viewBox="0 0 3750 3749.999967"
   version="1.2"
   id="svg847"
   sodipodi:docname="6.svg"
   inkscape:version="1.0.2 (e86c8708, 2021-01-15)">
  <metadata
     id="metadata851">
    <rdf:RDF>
      <cc:Work
         rdf:about="">
        <dc:format>image/svg+xml</dc:format>
        <dc:type
           rdf:resource="http://purl.org/dc/dcmitype/StillImage" />
      </cc:Work>
    </rdf:RDF>
  </metadata>
  <sodipodi:namedview
     pagecolor="#ffffff"
     bordercolor="#666666"
     borderopacity="1"
     objecttolerance="10"
     gridtolerance="10"
     guidetolerance="10"
     inkscape:pageopacity="0"
     inkscape:pageshadow="2"
     inkscape:window-width="1440"
     inkscape:window-height="872"
     id="namedview849"
     showgrid="false"
     inkscape:zoom="0.097863579"
     inkscape:cx="2410.2138"
     inkscape:cy="2658.6222"
     inkscape:window-x="0"
     inkscape:window-y="2449"
     inkscape:window-maximized="0"
     inkscape:current-layer="svg847" />
  <defs
     id="defs836">
    <clipPath
       id="clip1">
      <path
         d="M 1125 1125 L 2625 1125 L 2625 2625 L 1125 2625 Z M 1125 1125 "
         id="path833" />
    </clipPath>
  </defs>
  <g
     id="surface1"
     transform="matrix(2.475,0,0,2.475,-2762.9521,-2762.9521)">
    <g
       clip-path="url(#clip1)"
       clip-rule="nonzero"
       id="g840">
      <path
         style="fill:#0a87b3;fill-opacity:1;fill-rule:evenodd;stroke:none"
         d="m 1875.0352,2625.0586 c 413.1015,0 750.0234,-336.9336 750.0234,-750.0352 C 2625.0586,1461.9219 2288.1367,1125 1875.0352,1125 1461.9219,1125 1125,1461.9219 1125,1875.0234 c 0,413.1016 336.9219,750.0352 750.0352,750.0352"
         id="path838" />
    </g>
    <path
       style="fill:#0fbffa;fill-opacity:1;fill-rule:evenodd;stroke:none"
       d="m 2111.3047,1435.5547 c 54.0039,0 105.3867,21.4922 143.5469,59.6641 38.1601,38.1601 59.6562,89.5312 59.6562,143.5351 v 472.5508 c 0,54.0039 -21.4961,105.375 -59.6562,143.5351 -38.1602,38.1719 -89.543,59.668 -143.5469,59.668 h -472.5391 c -54.0156,0 -105.3867,-21.4961 -143.5468,-59.668 -38.1602,-38.1601 -59.6524,-89.5312 -59.6524,-143.5351 v -472.5508 c 0,-54.0039 21.4922,-105.375 59.6524,-143.5351 38.1601,-38.1719 89.5312,-59.6641 143.5468,-59.6641 h 472.5391"
       id="path842" />
    <path
       style="fill:#fa0f4c;fill-opacity:1;fill-rule:evenodd;stroke:none"
       d="m 1821.4727,2026.9375 c 17.6093,17.5977 26.4062,40.6641 26.4062,63.7227 0,23.0664 -8.7969,46.1328 -26.4062,63.7421 -17.5977,17.586 -40.6641,26.3946 -63.7188,26.3946 -23.0703,0 -46.1367,-8.8086 -63.7344,-26.3946 -17.5937,-17.6093 -26.3906,-40.6757 -26.3906,-63.7421 0,-23.0586 8.7969,-46.125 26.3906,-63.7227 17.5977,-17.5937 40.6641,-26.3945 63.7344,-26.3945 23.0547,0 46.1211,8.8008 63.7188,26.3945 z m -7.5,-215.6328 c 17.5976,17.5937 26.3945,40.6641 26.3945,63.7305 0,23.0586 -8.7969,46.125 -26.3945,63.7187 -17.5938,17.5977 -40.6641,26.4063 -63.7305,26.4063 -23.0664,0 -46.125,-8.8086 -63.7305,-26.4063 -17.5976,-17.5937 -26.3945,-40.6601 -26.3945,-63.7187 0,-23.0664 8.7969,-46.1368 26.3945,-63.7305 17.6055,-17.6094 40.6641,-26.4063 63.7305,-26.4063 23.0664,0 46.1367,8.7969 63.7305,26.4063 z m 257.0742,215.6328 c 17.6094,17.5977 26.4062,40.6641 26.4062,63.7227 0,23.0664 -8.7968,46.1328 -26.4062,63.7421 -17.5938,17.586 -40.6641,26.3946 -63.7188,26.3946 -23.0703,0 -46.1367,-8.8086 -63.7304,-26.3946 -17.5977,-17.6093 -26.4063,-40.6757 -26.4063,-63.7421 0,-23.0586 8.8086,-46.125 26.4063,-63.7227 17.5937,-17.5937 40.6601,-26.3945 63.7304,-26.3945 23.0547,0 46.125,8.8008 63.7188,26.3945 z m -134.961,-215.6328 c 17.5938,-17.6094 40.6758,-26.4063 63.7305,-26.4063 23.0703,0 46.1367,8.7969 63.7344,26.4063 17.5937,17.5937 26.3906,40.6641 26.3906,63.7305 0,23.0586 -8.7969,46.125 -26.3906,63.7187 -17.5977,17.5977 -40.6641,26.4063 -63.7344,26.4063 -23.0547,0 -46.1367,-8.8086 -63.7305,-26.4063 -17.5976,-17.5937 -26.3945,-40.6601 -26.3945,-63.7187 0,-23.0664 8.7969,-46.1368 26.3945,-63.7305 z m 175.2188,-347.5469 h -472.5391 c -48.1523,0 -91.9023,19.6836 -123.6133,51.3945 -31.7109,31.711 -51.3945,75.461 -51.3945,123.6016 v 472.5508 c 0,48.1289 19.6836,91.8789 51.3945,123.6016 31.711,31.7109 75.461,51.3945 123.6133,51.3945 h 472.5391 c 48.1289,0 91.8906,-19.6836 123.6016,-51.3945 31.7109,-31.7227 51.3945,-75.4727 51.3945,-123.6016 v -472.5508 c 0,-48.1406 -19.6836,-91.8906 -51.3945,-123.6016 -31.711,-31.7109 -75.4727,-51.3945 -123.6016,-51.3945 z m -304.8399,131.9102 c 17.5938,17.5976 26.4063,40.664 26.4063,63.7226 0,23.0664 -8.8125,46.1328 -26.4063,63.7305 -17.5976,17.5977 -40.664,26.4062 -63.7343,26.4062 -23.0547,0 -46.1211,-8.8085 -63.7188,-26.4062 -17.6094,-17.5977 -26.4062,-40.6641 -26.4062,-63.7305 0,-23.0586 8.7968,-46.125 26.4062,-63.7226 17.5977,-17.6055 40.6641,-26.4063 63.7188,-26.4063 23.0703,0 46.1367,8.8008 63.7343,26.4063 z m 122.1211,0 c 17.5977,-17.6055 40.6641,-26.4063 63.7227,-26.4063 23.0664,0 46.1328,8.8008 63.7305,26.4063 17.6093,17.5976 26.4062,40.664 26.4062,63.7226 0,23.0664 -8.7969,46.1328 -26.4062,63.7305 -17.5977,17.5977 -40.6641,26.4062 -63.7305,26.4062 -23.0586,0 -46.125,-8.8085 -63.7227,-26.4062 -17.6054,-17.5977 -26.4062,-40.6641 -26.4062,-63.7305 0,-23.0586 8.8008,-46.125 26.4062,-63.7226"
       id="path844" />
  </g>
</svg>
